<mxfile type="github" version="12.5.8" host="www.draw.io" modified="2020-01-25T20:53:32.836Z" agent="Mozilla/5.0 (Windows NT 10.0; Win64; x64) AppleWebKit/537.36 (KHTML, like Gecko) Chrome/70.0.3538.102 Safari/537.36 Edge/18.18363" etag="_ekDJBZHxBSF7-nR5nFk">
  <diagram id="Ty_rnmb_wAEssSwUr9Mi" name="Page-1">
    <mxGraphModel grid="1" dx="945" dy="568" gridSize="10" guides="1" tooltips="1" connect="1" arrows="1" fold="1" page="1" pageScale="1" pageWidth="827" pageHeight="1169" math="0" shadow="0">
      <root>
        <mxCell id="0"/>
        <mxCell id="1" parent="0"/>
        <mxCell id="yzz_mGQZxqfcN8-7hN_E-1" value="user" parent="1" vertex="1" style="whiteSpace=wrap;html=1;align=center;">
          <mxGeometry as="geometry" height="40" width="100" x="310" y="70"/>
        </mxCell>
        <mxCell id="yzz_mGQZxqfcN8-7hN_E-3" value="user_id" parent="1" vertex="1" style="ellipse;whiteSpace=wrap;html=1;align=center;fontStyle=4;fillColor=#EA6B66;">
          <mxGeometry as="geometry" height="40" width="100" x="320" y="140"/>
        </mxCell>
        <mxCell id="yzz_mGQZxqfcN8-7hN_E-4" value="avatar" parent="1" vertex="1" style="ellipse;whiteSpace=wrap;html=1;align=center;">
          <mxGeometry as="geometry" height="40" width="100" x="180" y="30"/>
        </mxCell>
        <mxCell id="yzz_mGQZxqfcN8-7hN_E-6" value="password" parent="1" vertex="1" style="ellipse;whiteSpace=wrap;html=1;align=center;">
          <mxGeometry as="geometry" height="40" width="100" x="460" y="40"/>
        </mxCell>
        <mxCell id="yzz_mGQZxqfcN8-7hN_E-9" value="name" parent="1" vertex="1" style="ellipse;whiteSpace=wrap;html=1;align=center;">
          <mxGeometry as="geometry" height="40" width="100" x="140" y="70"/>
        </mxCell>
        <mxCell id="_Jm6ty4hiCbCOnJKIBOg-23" value="" parent="1" style="endArrow=none;html=1;exitX=1;exitY=0.5;exitDx=0;exitDy=0;entryX=0.074;entryY=0.232;entryDx=0;entryDy=0;entryPerimeter=0;" edge="1" source="yzz_mGQZxqfcN8-7hN_E-1" target="yzz_mGQZxqfcN8-7hN_E-6">
          <mxGeometry as="geometry" height="50" width="50" relative="1">
            <mxPoint as="sourcePoint" x="220" y="105"/>
            <mxPoint as="targetPoint" x="240" y="80"/>
          </mxGeometry>
        </mxCell>
        <mxCell id="_Jm6ty4hiCbCOnJKIBOg-26" value="" parent="1" style="endArrow=none;html=1;entryX=0.426;entryY=0.994;entryDx=0;entryDy=0;entryPerimeter=0;exitX=0.588;exitY=0.03;exitDx=0;exitDy=0;exitPerimeter=0;" edge="1" source="yzz_mGQZxqfcN8-7hN_E-3" target="yzz_mGQZxqfcN8-7hN_E-1">
          <mxGeometry as="geometry" height="50" width="50" relative="1">
            <mxPoint as="sourcePoint" x="10" y="250"/>
            <mxPoint as="targetPoint" x="60" y="200"/>
          </mxGeometry>
        </mxCell>
        <mxCell id="_Jm6ty4hiCbCOnJKIBOg-27" value="" parent="1" style="endArrow=none;html=1;entryX=0;entryY=0;entryDx=0;entryDy=0;exitX=1;exitY=1;exitDx=0;exitDy=0;" edge="1" source="yzz_mGQZxqfcN8-7hN_E-4" target="yzz_mGQZxqfcN8-7hN_E-1">
          <mxGeometry as="geometry" height="50" width="50" relative="1">
            <mxPoint as="sourcePoint" x="10" y="250"/>
            <mxPoint as="targetPoint" x="60" y="200"/>
          </mxGeometry>
        </mxCell>
        <mxCell id="_Jm6ty4hiCbCOnJKIBOg-28" value="" parent="1" style="endArrow=none;html=1;entryX=0;entryY=0.5;entryDx=0;entryDy=0;exitX=0.959;exitY=0.768;exitDx=0;exitDy=0;exitPerimeter=0;" edge="1" source="yzz_mGQZxqfcN8-7hN_E-9" target="yzz_mGQZxqfcN8-7hN_E-1">
          <mxGeometry as="geometry" height="50" width="50" relative="1">
            <mxPoint as="sourcePoint" x="10" y="250"/>
            <mxPoint as="targetPoint" x="60" y="200"/>
          </mxGeometry>
        </mxCell>
        <mxCell id="_Jm6ty4hiCbCOnJKIBOg-31" value="email" parent="1" vertex="1" style="ellipse;whiteSpace=wrap;html=1;align=center;">
          <mxGeometry as="geometry" height="40" width="100" x="320" y="10"/>
        </mxCell>
        <mxCell id="_Jm6ty4hiCbCOnJKIBOg-32" value="phone" parent="1" vertex="1" style="ellipse;shape=doubleEllipse;margin=3;whiteSpace=wrap;html=1;align=center;">
          <mxGeometry as="geometry" height="40" width="100" x="190" y="130"/>
        </mxCell>
        <mxCell id="_Jm6ty4hiCbCOnJKIBOg-33" value="" parent="1" style="endArrow=none;html=1;entryX=0.131;entryY=0.994;entryDx=0;entryDy=0;entryPerimeter=0;exitX=1;exitY=0;exitDx=0;exitDy=0;" edge="1" source="_Jm6ty4hiCbCOnJKIBOg-32" target="yzz_mGQZxqfcN8-7hN_E-1">
          <mxGeometry as="geometry" height="50" width="50" relative="1">
            <mxPoint as="sourcePoint" x="100" y="160"/>
            <mxPoint as="targetPoint" x="60" y="230"/>
          </mxGeometry>
        </mxCell>
        <mxCell id="_Jm6ty4hiCbCOnJKIBOg-34" value="" parent="1" style="endArrow=none;html=1;exitX=0.588;exitY=0.018;exitDx=0;exitDy=0;exitPerimeter=0;entryX=0.379;entryY=1.018;entryDx=0;entryDy=0;entryPerimeter=0;" edge="1" source="yzz_mGQZxqfcN8-7hN_E-1" target="_Jm6ty4hiCbCOnJKIBOg-31">
          <mxGeometry as="geometry" height="50" width="50" relative="1">
            <mxPoint as="sourcePoint" x="10" y="260"/>
            <mxPoint as="targetPoint" x="178" y="42"/>
            <Array as="points">
              <mxPoint x="369" y="60"/>
            </Array>
          </mxGeometry>
        </mxCell>
        <mxCell id="_Jm6ty4hiCbCOnJKIBOg-35" value="coordinator" parent="1" vertex="1" style="whiteSpace=wrap;html=1;align=center;fillColor=#FFFFFF;">
          <mxGeometry as="geometry" height="40" width="100" x="727" y="100"/>
        </mxCell>
        <mxCell id="_Jm6ty4hiCbCOnJKIBOg-36" value="supervisor" parent="1" vertex="1" style="whiteSpace=wrap;html=1;align=center;fillColor=#FFFFFF;">
          <mxGeometry as="geometry" height="40" width="100" x="460" y="250"/>
        </mxCell>
        <mxCell id="_Jm6ty4hiCbCOnJKIBOg-37" value="student" parent="1" vertex="1" style="whiteSpace=wrap;html=1;align=center;fillColor=#FFFFFF;">
          <mxGeometry as="geometry" height="40" width="100" x="80" y="240"/>
        </mxCell>
        <mxCell id="_Jm6ty4hiCbCOnJKIBOg-39" value="degree_program" parent="1" vertex="1" style="ellipse;whiteSpace=wrap;html=1;align=center;fillColor=#FFFFFF;">
          <mxGeometry as="geometry" height="40" width="100" x="10" y="300"/>
        </mxCell>
        <mxCell id="_Jm6ty4hiCbCOnJKIBOg-40" value="year_of_study" parent="1" vertex="1" style="ellipse;whiteSpace=wrap;html=1;align=center;fillColor=#FFFFFF;">
          <mxGeometry as="geometry" height="40" width="100" x="120" y="180"/>
        </mxCell>
        <mxCell id="_Jm6ty4hiCbCOnJKIBOg-41" value="" parent="1" style="endArrow=none;html=1;exitX=0;exitY=0;exitDx=0;exitDy=0;" edge="1" source="_Jm6ty4hiCbCOnJKIBOg-37" target="_Jm6ty4hiCbCOnJKIBOg-38">
          <mxGeometry as="geometry" height="50" width="50" relative="1">
            <mxPoint as="sourcePoint" x="10" y="410"/>
            <mxPoint as="targetPoint" x="60" y="360"/>
          </mxGeometry>
        </mxCell>
        <mxCell id="_Jm6ty4hiCbCOnJKIBOg-42" value="" parent="1" style="endArrow=none;html=1;entryX=0;entryY=1;entryDx=0;entryDy=0;exitX=0.5;exitY=0;exitDx=0;exitDy=0;" edge="1" source="_Jm6ty4hiCbCOnJKIBOg-39" target="_Jm6ty4hiCbCOnJKIBOg-37">
          <mxGeometry as="geometry" height="50" width="50" relative="1">
            <mxPoint as="sourcePoint" x="10" y="410"/>
            <mxPoint as="targetPoint" x="60" y="360"/>
          </mxGeometry>
        </mxCell>
        <mxCell id="_Jm6ty4hiCbCOnJKIBOg-43" value="" parent="1" style="endArrow=none;html=1;entryX=0.264;entryY=0.907;entryDx=0;entryDy=0;entryPerimeter=0;" edge="1" target="_Jm6ty4hiCbCOnJKIBOg-40">
          <mxGeometry as="geometry" height="50" width="50" relative="1">
            <mxPoint as="sourcePoint" x="130" y="240"/>
            <mxPoint as="targetPoint" x="60" y="360"/>
          </mxGeometry>
        </mxCell>
        <mxCell id="_Jm6ty4hiCbCOnJKIBOg-38" value="student_id" parent="1" vertex="1" style="ellipse;whiteSpace=wrap;html=1;align=center;fontStyle=4;fillColor=#EA6B66;">
          <mxGeometry as="geometry" height="40" width="100" y="180"/>
        </mxCell>
        <mxCell id="_Jm6ty4hiCbCOnJKIBOg-44" value="coordinator_id" parent="1" vertex="1" style="ellipse;whiteSpace=wrap;html=1;align=center;fontStyle=4;fillColor=#EA6B66;">
          <mxGeometry as="geometry" height="40" width="100" x="720" y="10"/>
        </mxCell>
        <mxCell id="_Jm6ty4hiCbCOnJKIBOg-45" value="supervisor_id" parent="1" vertex="1" style="ellipse;whiteSpace=wrap;html=1;align=center;fontStyle=4;fillColor=#EA6B66;">
          <mxGeometry as="geometry" height="40" width="100" x="330" y="235"/>
        </mxCell>
        <mxCell id="_Jm6ty4hiCbCOnJKIBOg-46" value="title" parent="1" vertex="1" style="ellipse;whiteSpace=wrap;html=1;align=center;fillColor=#FFFFFF;">
          <mxGeometry as="geometry" height="40" width="100" x="380" y="315"/>
        </mxCell>
        <mxCell id="_Jm6ty4hiCbCOnJKIBOg-47" value="bio" parent="1" vertex="1" style="ellipse;whiteSpace=wrap;html=1;align=center;fillColor=#FFFFFF;">
          <mxGeometry as="geometry" height="40" width="100" x="540" y="330"/>
        </mxCell>
        <mxCell id="_Jm6ty4hiCbCOnJKIBOg-48" value="bio" parent="1" vertex="1" style="ellipse;whiteSpace=wrap;html=1;align=center;fillColor=#FFFFFF;">
          <mxGeometry as="geometry" height="40" width="100" x="810" y="170"/>
        </mxCell>
        <mxCell id="_Jm6ty4hiCbCOnJKIBOg-49" value="title" parent="1" vertex="1" style="ellipse;whiteSpace=wrap;html=1;align=center;fillColor=#FFFFFF;">
          <mxGeometry as="geometry" height="40" width="100" x="610" y="50"/>
        </mxCell>
        <mxCell id="_Jm6ty4hiCbCOnJKIBOg-50" value="" parent="1" style="endArrow=none;html=1;exitX=0.079;exitY=1.049;exitDx=0;exitDy=0;exitPerimeter=0;" edge="1" source="_Jm6ty4hiCbCOnJKIBOg-36" target="_Jm6ty4hiCbCOnJKIBOg-46">
          <mxGeometry as="geometry" height="50" width="50" relative="1">
            <mxPoint as="sourcePoint" x="492" y="300"/>
            <mxPoint as="targetPoint" x="60" y="400"/>
          </mxGeometry>
        </mxCell>
        <mxCell id="_Jm6ty4hiCbCOnJKIBOg-51" value="" parent="1" style="endArrow=none;html=1;exitX=0.5;exitY=1;exitDx=0;exitDy=0;" edge="1" source="_Jm6ty4hiCbCOnJKIBOg-36" target="_Jm6ty4hiCbCOnJKIBOg-47">
          <mxGeometry as="geometry" height="50" width="50" relative="1">
            <mxPoint as="sourcePoint" x="502.0999999999999" y="312.96000000000003"/>
            <mxPoint as="targetPoint" x="487.6289159348637" y="350.2341723505797"/>
          </mxGeometry>
        </mxCell>
        <mxCell id="_Jm6ty4hiCbCOnJKIBOg-52" value="" parent="1" style="endArrow=none;html=1;exitX=0;exitY=0.5;exitDx=0;exitDy=0;entryX=1;entryY=0.5;entryDx=0;entryDy=0;" edge="1" source="_Jm6ty4hiCbCOnJKIBOg-36" target="_Jm6ty4hiCbCOnJKIBOg-45">
          <mxGeometry as="geometry" height="50" width="50" relative="1">
            <mxPoint as="sourcePoint" x="502.0999999999999" y="312.96000000000003"/>
            <mxPoint as="targetPoint" x="487.6289159348637" y="350.2341723505797"/>
          </mxGeometry>
        </mxCell>
        <mxCell id="_Jm6ty4hiCbCOnJKIBOg-53" value="" parent="1" style="endArrow=none;html=1;entryX=0.326;entryY=1.014;entryDx=0;entryDy=0;entryPerimeter=0;exitX=0.5;exitY=0;exitDx=0;exitDy=0;" edge="1" source="_Jm6ty4hiCbCOnJKIBOg-35" target="_Jm6ty4hiCbCOnJKIBOg-44">
          <mxGeometry as="geometry" height="50" width="50" relative="1">
            <mxPoint as="sourcePoint" x="690" y="120"/>
            <mxPoint as="targetPoint" x="700" y="80"/>
          </mxGeometry>
        </mxCell>
        <mxCell id="_Jm6ty4hiCbCOnJKIBOg-54" value="" parent="1" style="endArrow=none;html=1;entryX=0.75;entryY=1;entryDx=0;entryDy=0;exitX=0;exitY=0;exitDx=0;exitDy=0;" edge="1" source="_Jm6ty4hiCbCOnJKIBOg-48" target="_Jm6ty4hiCbCOnJKIBOg-35">
          <mxGeometry as="geometry" height="50" width="50" relative="1">
            <mxPoint as="sourcePoint" x="753" y="180"/>
            <mxPoint as="targetPoint" x="760" y="150"/>
          </mxGeometry>
        </mxCell>
        <mxCell id="_Jm6ty4hiCbCOnJKIBOg-55" value="" parent="1" style="endArrow=none;html=1;entryX=0;entryY=0.5;entryDx=0;entryDy=0;exitX=0.974;exitY=0.324;exitDx=0;exitDy=0;exitPerimeter=0;" edge="1" source="_Jm6ty4hiCbCOnJKIBOg-49" target="_Jm6ty4hiCbCOnJKIBOg-35">
          <mxGeometry as="geometry" height="50" width="50" relative="1">
            <mxPoint as="sourcePoint" x="752.5999999999999" y="195.79999999999995"/>
            <mxPoint as="targetPoint" x="735" y="160"/>
          </mxGeometry>
        </mxCell>
        <mxCell id="_Jm6ty4hiCbCOnJKIBOg-56" value="has" parent="1" vertex="1" style="shape=rhombus;perimeter=rhombusPerimeter;whiteSpace=wrap;html=1;align=center;fillColor=#FFFFFF;direction=west;">
          <mxGeometry as="geometry" height="75" width="90" x="225" y="200"/>
        </mxCell>
        <mxCell id="_Jm6ty4hiCbCOnJKIBOg-58" value="" parent="1" style="endArrow=none;html=1;rounded=0;exitX=0.389;exitY=1;exitDx=0;exitDy=0;exitPerimeter=0;" edge="1" source="_Jm6ty4hiCbCOnJKIBOg-56">
          <mxGeometry as="geometry" relative="1">
            <mxPoint as="sourcePoint" x="270" y="200"/>
            <mxPoint as="targetPoint" x="340" y="120"/>
          </mxGeometry>
        </mxCell>
        <mxCell id="_Jm6ty4hiCbCOnJKIBOg-61" value="" parent="1" style="endArrow=none;html=1;rounded=0;exitX=0.833;exitY=0.333;exitDx=0;exitDy=0;exitPerimeter=0;entryX=1;entryY=0.75;entryDx=0;entryDy=0;" edge="1" source="_Jm6ty4hiCbCOnJKIBOg-56" target="_Jm6ty4hiCbCOnJKIBOg-37">
          <mxGeometry as="geometry" relative="1">
            <mxPoint as="sourcePoint" x="10" y="400"/>
            <mxPoint as="targetPoint" x="190" y="270"/>
          </mxGeometry>
        </mxCell>
        <mxCell id="_Jm6ty4hiCbCOnJKIBOg-65" value="has" parent="1" vertex="1" style="shape=rhombus;perimeter=rhombusPerimeter;whiteSpace=wrap;html=1;align=center;fillColor=#FFFFFF;">
          <mxGeometry as="geometry" height="60" width="120" x="410" y="175"/>
        </mxCell>
        <mxCell id="_Jm6ty4hiCbCOnJKIBOg-67" value="" parent="1" style="endArrow=none;html=1;rounded=0;" edge="1" source="_Jm6ty4hiCbCOnJKIBOg-65" target="_Jm6ty4hiCbCOnJKIBOg-36">
          <mxGeometry as="geometry" relative="1">
            <mxPoint as="sourcePoint" x="470" y="240"/>
            <mxPoint as="targetPoint" x="540" y="250"/>
          </mxGeometry>
        </mxCell>
        <mxCell id="_Jm6ty4hiCbCOnJKIBOg-68" value="" parent="1" style="endArrow=none;html=1;rounded=0;entryX=0.391;entryY=0.113;entryDx=0;entryDy=0;entryPerimeter=0;" edge="1" target="_Jm6ty4hiCbCOnJKIBOg-65">
          <mxGeometry as="geometry" relative="1">
            <mxPoint as="sourcePoint" x="410" y="110"/>
            <mxPoint as="targetPoint" x="470" y="180"/>
          </mxGeometry>
        </mxCell>
        <mxCell id="_Jm6ty4hiCbCOnJKIBOg-69" value="has" parent="1" vertex="1" style="shape=rhombus;perimeter=rhombusPerimeter;whiteSpace=wrap;html=1;align=center;fillColor=#FFFFFF;">
          <mxGeometry as="geometry" height="60" width="120" x="530" y="100"/>
        </mxCell>
        <mxCell id="_Jm6ty4hiCbCOnJKIBOg-70" value="" parent="1" style="endArrow=none;html=1;rounded=0;entryX=0;entryY=0.5;entryDx=0;entryDy=0;" edge="1" target="_Jm6ty4hiCbCOnJKIBOg-69">
          <mxGeometry as="geometry" relative="1">
            <mxPoint as="sourcePoint" x="410" y="100"/>
            <mxPoint as="targetPoint" x="570" y="100"/>
          </mxGeometry>
        </mxCell>
        <mxCell id="_Jm6ty4hiCbCOnJKIBOg-71" value="" parent="1" style="endArrow=none;html=1;rounded=0;entryX=0;entryY=0.75;entryDx=0;entryDy=0;exitX=1;exitY=0.5;exitDx=0;exitDy=0;" edge="1" source="_Jm6ty4hiCbCOnJKIBOg-69" target="_Jm6ty4hiCbCOnJKIBOg-35">
          <mxGeometry as="geometry" relative="1">
            <mxPoint as="sourcePoint" x="600" y="120"/>
            <mxPoint as="targetPoint" x="760" y="120"/>
          </mxGeometry>
        </mxCell>
        <mxCell id="_Jm6ty4hiCbCOnJKIBOg-72" value="team" parent="1" vertex="1" style="whiteSpace=wrap;html=1;align=center;fillColor=#FFFFFF;">
          <mxGeometry as="geometry" height="40" width="100" x="380" y="430"/>
        </mxCell>
        <mxCell id="_Jm6ty4hiCbCOnJKIBOg-73" value="team_id" parent="1" vertex="1" style="ellipse;whiteSpace=wrap;html=1;align=center;fontStyle=4;fillColor=#EA6B66;">
          <mxGeometry as="geometry" height="40" width="100" x="190" y="430"/>
        </mxCell>
        <mxCell id="_Jm6ty4hiCbCOnJKIBOg-74" value="" parent="1" style="endArrow=none;html=1;rounded=0;exitX=1;exitY=0.5;exitDx=0;exitDy=0;entryX=0;entryY=0.5;entryDx=0;entryDy=0;" edge="1" source="_Jm6ty4hiCbCOnJKIBOg-73" target="_Jm6ty4hiCbCOnJKIBOg-72">
          <mxGeometry as="geometry" relative="1">
            <mxPoint as="sourcePoint" x="10" y="540"/>
            <mxPoint as="targetPoint" x="140" y="480"/>
          </mxGeometry>
        </mxCell>
        <mxCell id="_Jm6ty4hiCbCOnJKIBOg-77" value="has" parent="1" vertex="1" style="shape=rhombus;perimeter=rhombusPerimeter;whiteSpace=wrap;html=1;align=center;fillColor=#FFFFFF;direction=south;">
          <mxGeometry as="geometry" height="120" width="60" x="270" y="290"/>
        </mxCell>
        <mxCell id="_Jm6ty4hiCbCOnJKIBOg-78" value="" parent="1" style="endArrow=none;html=1;rounded=0;entryX=0.25;entryY=0;entryDx=0;entryDy=0;exitX=0.636;exitY=0.088;exitDx=0;exitDy=0;exitPerimeter=0;" edge="1" source="_Jm6ty4hiCbCOnJKIBOg-77" target="_Jm6ty4hiCbCOnJKIBOg-72">
          <mxGeometry as="geometry" relative="1">
            <mxPoint as="sourcePoint" x="345" y="510"/>
            <mxPoint as="targetPoint" x="410" y="440"/>
          </mxGeometry>
        </mxCell>
        <mxCell id="_Jm6ty4hiCbCOnJKIBOg-79" value="" parent="1" style="endArrow=none;html=1;rounded=0;entryX=0.75;entryY=1;entryDx=0;entryDy=0;exitX=0.382;exitY=0.85;exitDx=0;exitDy=0;exitPerimeter=0;" edge="1" source="_Jm6ty4hiCbCOnJKIBOg-77" target="_Jm6ty4hiCbCOnJKIBOg-37">
          <mxGeometry as="geometry" relative="1">
            <mxPoint as="sourcePoint" x="270" y="330"/>
            <mxPoint as="targetPoint" x="270" y="280"/>
          </mxGeometry>
        </mxCell>
        <mxCell id="_Jm6ty4hiCbCOnJKIBOg-81" value="schedule" parent="1" vertex="1" style="whiteSpace=wrap;html=1;align=center;fillColor=#FFFFFF;">
          <mxGeometry as="geometry" height="40" width="90" x="670" y="275"/>
        </mxCell>
        <mxCell id="_Jm6ty4hiCbCOnJKIBOg-82" value="has" parent="1" vertex="1" style="shape=rhombus;perimeter=rhombusPerimeter;whiteSpace=wrap;html=1;align=center;fillColor=#FFFFFF;direction=west;">
          <mxGeometry as="geometry" height="60" width="120" x="670" y="410"/>
        </mxCell>
        <mxCell id="_Jm6ty4hiCbCOnJKIBOg-83" value="has" parent="1" vertex="1" style="shape=rhombus;perimeter=rhombusPerimeter;whiteSpace=wrap;html=1;align=center;fillColor=#FFFFFF;">
          <mxGeometry as="geometry" height="60" width="120" x="460" y="355"/>
        </mxCell>
        <mxCell id="_Jm6ty4hiCbCOnJKIBOg-84" value="" parent="1" style="endArrow=none;html=1;rounded=0;" edge="1">
          <mxGeometry as="geometry" relative="1">
            <mxPoint as="sourcePoint" x="480" y="460"/>
            <mxPoint as="targetPoint" x="690" y="450"/>
            <Array as="points">
              <mxPoint x="580" y="460"/>
            </Array>
          </mxGeometry>
        </mxCell>
        <mxCell id="_Jm6ty4hiCbCOnJKIBOg-86" value="" parent="1" style="endArrow=none;html=1;rounded=0;exitX=0.122;exitY=0.641;exitDx=0;exitDy=0;exitPerimeter=0;" edge="1" source="_Jm6ty4hiCbCOnJKIBOg-82" target="_Jm6ty4hiCbCOnJKIBOg-35">
          <mxGeometry as="geometry" relative="1">
            <mxPoint as="sourcePoint" x="790" y="380"/>
            <mxPoint as="targetPoint" x="950" y="380"/>
            <Array as="points">
              <mxPoint x="800" y="280"/>
            </Array>
          </mxGeometry>
        </mxCell>
        <mxCell id="_Jm6ty4hiCbCOnJKIBOg-87" value="" parent="1" style="endArrow=none;html=1;rounded=0;entryX=0;entryY=1;entryDx=0;entryDy=0;exitX=1;exitY=0.25;exitDx=0;exitDy=0;" edge="1" source="_Jm6ty4hiCbCOnJKIBOg-72" target="_Jm6ty4hiCbCOnJKIBOg-83">
          <mxGeometry as="geometry" relative="1">
            <mxPoint as="sourcePoint" x="470" y="430"/>
            <mxPoint as="targetPoint" x="630" y="430"/>
          </mxGeometry>
        </mxCell>
        <mxCell id="_Jm6ty4hiCbCOnJKIBOg-89" value="" parent="1" style="endArrow=none;html=1;rounded=0;exitX=0.404;exitY=0.105;exitDx=0;exitDy=0;exitPerimeter=0;" edge="1" source="_Jm6ty4hiCbCOnJKIBOg-83">
          <mxGeometry as="geometry" relative="1">
            <mxPoint as="sourcePoint" x="540" y="380"/>
            <mxPoint as="targetPoint" x="500" y="300"/>
          </mxGeometry>
        </mxCell>
        <mxCell id="_Jm6ty4hiCbCOnJKIBOg-90" value="segment" parent="1" vertex="1" style="whiteSpace=wrap;html=1;align=center;fillColor=#FFFFFF;">
          <mxGeometry as="geometry" height="40" width="90" x="210" y="580"/>
        </mxCell>
        <mxCell id="_Jm6ty4hiCbCOnJKIBOg-91" value="Attribute" parent="1" vertex="1" style="ellipse;whiteSpace=wrap;html=1;align=center;fontStyle=4;fillColor=#FFFFFF;">
          <mxGeometry as="geometry" height="40" width="100" x="170" y="510"/>
        </mxCell>
        <mxCell id="_Jm6ty4hiCbCOnJKIBOg-92" value="schedule_id" parent="1" vertex="1" style="ellipse;whiteSpace=wrap;html=1;align=center;fontStyle=4;fillColor=#FFFFFF;">
          <mxGeometry as="geometry" height="40" width="100" x="600" y="171"/>
        </mxCell>
        <mxCell id="_Jm6ty4hiCbCOnJKIBOg-93" value="" parent="1" style="endArrow=none;html=1;rounded=0;entryX=0.25;entryY=0;entryDx=0;entryDy=0;" edge="1" target="_Jm6ty4hiCbCOnJKIBOg-81">
          <mxGeometry as="geometry" relative="1">
            <mxPoint as="sourcePoint" x="650" y="210"/>
            <mxPoint as="targetPoint" x="810" y="210"/>
          </mxGeometry>
        </mxCell>
        <mxCell id="_Jm6ty4hiCbCOnJKIBOg-94" value="description" parent="1" vertex="1" style="ellipse;whiteSpace=wrap;html=1;align=center;fillColor=#FFFFFF;">
          <mxGeometry as="geometry" height="40" width="100" x="680" y="200"/>
        </mxCell>
        <mxCell id="_Jm6ty4hiCbCOnJKIBOg-95" value="" parent="1" style="endArrow=none;html=1;rounded=0;exitX=0.75;exitY=0;exitDx=0;exitDy=0;" edge="1" source="_Jm6ty4hiCbCOnJKIBOg-81" target="_Jm6ty4hiCbCOnJKIBOg-94">
          <mxGeometry as="geometry" relative="1">
            <mxPoint as="sourcePoint" x="710" y="270"/>
            <mxPoint as="targetPoint" x="860" y="280"/>
            <Array as="points">
              <mxPoint x="730" y="260"/>
            </Array>
          </mxGeometry>
        </mxCell>
        <mxCell id="_Jm6ty4hiCbCOnJKIBOg-96" value="has" parent="1" vertex="1" style="shape=rhombus;perimeter=rhombusPerimeter;whiteSpace=wrap;html=1;align=center;fillColor=#FFFFFF;">
          <mxGeometry as="geometry" height="60" width="60" x="580" y="240"/>
        </mxCell>
        <mxCell id="_Jm6ty4hiCbCOnJKIBOg-97" value="" parent="1" style="endArrow=none;html=1;rounded=0;exitX=1;exitY=0.5;exitDx=0;exitDy=0;" edge="1" source="_Jm6ty4hiCbCOnJKIBOg-96">
          <mxGeometry as="geometry" relative="1">
            <mxPoint as="sourcePoint" x="570" y="280"/>
            <mxPoint as="targetPoint" x="670" y="280"/>
          </mxGeometry>
        </mxCell>
        <mxCell id="_Jm6ty4hiCbCOnJKIBOg-98" value="" parent="1" style="endArrow=none;html=1;rounded=0;entryX=0;entryY=0.5;entryDx=0;entryDy=0;" edge="1" target="_Jm6ty4hiCbCOnJKIBOg-96">
          <mxGeometry as="geometry" relative="1">
            <mxPoint as="sourcePoint" x="560" y="270"/>
            <mxPoint as="targetPoint" x="650" y="260"/>
          </mxGeometry>
        </mxCell>
        <mxCell id="_Jm6ty4hiCbCOnJKIBOg-99" value="has" parent="1" vertex="1" style="shape=rhombus;perimeter=rhombusPerimeter;whiteSpace=wrap;html=1;align=center;fillColor=#FFFFFF;direction=south;">
          <mxGeometry as="geometry" height="80" width="60" x="630" y="350"/>
        </mxCell>
        <mxCell id="_Jm6ty4hiCbCOnJKIBOg-100" value="" parent="1" style="endArrow=none;html=1;rounded=0;entryX=1;entryY=1;entryDx=0;entryDy=0;" edge="1" target="_Jm6ty4hiCbCOnJKIBOg-99">
          <mxGeometry as="geometry" relative="1">
            <mxPoint as="sourcePoint" x="480" y="450"/>
            <mxPoint as="targetPoint" x="640" y="450"/>
          </mxGeometry>
        </mxCell>
        <mxCell id="_Jm6ty4hiCbCOnJKIBOg-101" value="" parent="1" style="endArrow=none;html=1;rounded=0;entryX=0.386;entryY=1.152;entryDx=0;entryDy=0;entryPerimeter=0;exitX=0;exitY=0;exitDx=0;exitDy=0;" edge="1" source="_Jm6ty4hiCbCOnJKIBOg-99" target="_Jm6ty4hiCbCOnJKIBOg-81">
          <mxGeometry as="geometry" relative="1">
            <mxPoint as="sourcePoint" x="670" y="360"/>
            <mxPoint as="targetPoint" x="830" y="360"/>
          </mxGeometry>
        </mxCell>
      </root>
    </mxGraphModel>
  </diagram>
</mxfile>
